<svg width="62" height="58" xmlns="http://www.w3.org/2000/svg">
 <!-- Created with Method Draw - http://github.com/duopixel/Method-Draw/ -->
 <g id="Layer_1">
  <title>Layer 1</title>
  <ellipse ry="26.5" rx="26.5" id="svg_14" cy="305.3" cx="32" opacity="undefined" stroke-opacity="null" stroke-dasharray="null" stroke-width="null" stroke="#000" fill="#ffffff"/>
  <rect id="svg_15" height="20" width="20" y="301.8" x="22.5" opacity="undefined" stroke-opacity="null" stroke-dasharray="null" stroke-width="null" stroke="#000" fill="#0C372C"/>
  <path id="svg_16" d="m18.11247,304.68413l14,-21l14,21l-28,0z" opacity="undefined" fill-opacity="null" stroke-opacity="null" stroke-dasharray="null" stroke-width="null" stroke="#000" fill="#0C372C"/>
  <ellipse ry="25.15151" rx="27.17171" id="svg_17" cy="28.93939" cx="31.20202" opacity="undefined" stroke-opacity="null" stroke-dasharray="null" stroke-width="null" stroke="#000" fill="#ffffff"/>
  <path transform="rotate(-179.0986328125 29.031295776367184,29.18541526794434) " id="svg_18" d="m7.0111,28.95878c0.04093,-4.36725 -0.02619,-8.74033 0.33657,-13.09989c8.91377,1.43411 17.72241,3.78066 26.48597,5.89089c0.47047,-2.14144 0.24903,-3.91778 0.6578,-5.89769c5.63008,4.16627 11.20939,8.39187 16.56005,12.81869c-5.13343,5.02154 -11.02166,9.3824 -16.80232,13.84797c-0.18719,-2.07955 -0.37442,-4.15908 -0.56161,-6.23863c-8.51985,2.01187 -17.52987,4.09194 -26.1048,5.93118c-0.58314,-4.24395 -0.566,-8.86574 -0.57165,-13.25251z" opacity="undefined" stroke-opacity="null" stroke-dasharray="null" stroke-width="null" stroke="#000" fill="#0E353B"/>
 </g>
</svg>